<?xml version="1.0" encoding="utf-8"?>
<!-- Generator: Adobe Illustrator 22.1.0, SVG Export Plug-In . SVG Version: 6.00 Build 0)  -->
<svg version="1.1" id="Layer_1" xmlns="http://www.w3.org/2000/svg" xmlns:xlink="http://www.w3.org/1999/xlink" x="0px" y="0px"
	 viewBox="0 0 512 1024" style="enable-background:new 0 0 512 1024;" xml:space="preserve">
<style type="text/css">
	.st0{fill:#4A98C8;}
	.st1{opacity:0.191;fill:#010101;enable-background:new    ;}
	.st2{fill:#FFFFFF;}
</style>
<rect class="st0" width="512" height="1024"/>
<g>
	<polyline class="st0" points="0,761 512,761 512,249 0,249 0,761 	"/>
	<path class="st1" d="M512,603c-38-30-152-114-152-114l-183,5l25,136l157,131l153,126V603"/>
	<path class="st2" d="M222.8,430.5c5.8,0,10.6,4.8,10.6,10.7c0,5.9-4.7,10.7-10.6,10.7c-5.8,0-10.6-4.8-10.6-10.7
		C212.2,435.4,216.9,430.5,222.8,430.5 M253.2,413.3c-9.6,0-18.8,0.9-26.9,2.3c-23.8,4.2-28.1,13-28.1,29.2v21.4h56.2v7.1h-56.2
		h-21.1c-16.3,0-30.6,9.8-35.1,28.5c-5.2,21.4-5.4,34.8,0,57.1c4,16.6,13.5,28.5,29.9,28.5h19.3v-25.7c0-18.6,16.1-34.9,35.1-34.9
		h56.2c15.6,0,28.1-12.9,28.1-28.6v-53.5c0-15.2-12.9-26.7-28.1-29.2C272.8,414,262.8,413.3,253.2,413.3z"/>
	<path class="st2" d="M286,609c5.8,0,10.6,4.8,10.6,10.7c0,5.9-4.7,10.7-10.6,10.7c-5.8,0-10.6-4.8-10.6-10.7
		C275.5,613.8,280.2,609,286,609 M317.6,473.4v25c0,19.4-16.4,35.7-35.1,35.7h-56.2c-15.4,0-28.1,13.2-28.1,28.6v53.5
		c0,15.2,13.3,24.2,28.1,28.6c17.8,5.2,34.9,6.2,56.2,0c14.2-4.1,28.1-12.3,28.1-28.6v-21.4h-56.2v-7.1h56.2h28.1
		c16.3,0,22.4-11.4,28.1-28.5c5.9-17.6,5.6-34.6,0-57.1c-4-16.3-11.8-28.5-28.1-28.5L317.6,473.4L317.6,473.4z"/>
	<path class="st2" d="M156.5,360.6c0,3.7,0.8,6.5,2.3,8.3c1.6,1.8,3.4,2.7,5.7,2.7c2.1,0,3.9-0.8,5.3-2.5c1.4-1.6,2.1-4.3,2.1-8.1
		c0-3.5-0.7-6.1-2.2-7.8c-1.5-1.7-3.3-2.5-5.4-2.5c-2.2,0-4.1,0.8-5.6,2.5C157.2,354.8,156.5,357.3,156.5,360.6 M146.7,344.2h9.8v5
		c1.1-1.7,2.6-3.1,4.5-4.1c1.9-1,4-1.5,6.3-1.5c4,0,7.5,1.5,10.3,4.6c2.8,3.1,4.2,7.3,4.2,12.8c0,5.6-1.4,10-4.4,13.1
		s-6.4,4.7-10.6,4.7c-2,0-3.8-0.4-5.3-1.1c-1.6-0.7-3.3-2-5-3.8V391h-9.8L146.7,344.2L146.7,344.2z"/>
	<path class="st2" d="M185.3,344.2h9.8l8.1,23.9l8.1-23.9h9.8l-12.3,32.2l-2.3,6.1c-0.8,2-1.5,3.5-2.2,4.5c-0.7,1-1.5,1.9-2.4,2.5
		c-0.9,0.6-2,1.2-3.4,1.5s-2.9,0.5-4.5,0.5c-1.7,0-3.4-0.2-5-0.5l-0.7-7c1.3,0.3,2.6,0.4,3.6,0.4c2,0,3.5-0.6,4.4-1.8
		c1-1.2,1.7-2.8,2.2-4.7L185.3,344.2"/>
	<path class="st2" d="M245,344.2v7.2h-7v13.7c0,2.8,0.1,4.4,0.2,4.9c0.1,0.5,0.5,0.8,1,1.1c0.5,0.3,1.1,0.4,1.8,0.4
		c1,0,2.5-0.3,4.4-0.9l0.4,6.7c-2.3,0.9-4.9,1.3-7.8,1.3c-1.8,0-3.4-0.3-4.8-0.8c-1.4-0.5-2.5-1.2-3.2-2.1c-0.7-0.9-1.1-2-1.4-3.5
		c-0.2-1-0.3-3.1-0.3-6.3v-14.7h-4.9v-7.1h4.9v-6.5l9.8-5.2v11.7H245"/>
	<path class="st2" d="M259.8,331.2v17.5c3.1-3.4,6.7-5.2,11-5.2c2.2,0,4.1,0.4,5.9,1.1c1.8,0.8,3.1,1.7,4,2.9
		c0.9,1.2,1.5,2.5,1.8,3.9c0.3,1.4,0.5,3.7,0.5,6.7V378h-9.8v-17.6c0-3.5-0.2-5.7-0.5-6.6c-0.4-0.9-1-1.7-1.9-2.2
		c-0.9-0.6-2-0.8-3.3-0.8c-1.5,0-2.9,0.4-4.1,1.1c-1.2,0.7-2.1,1.8-2.7,3.2c-0.6,1.4-0.8,3.5-0.8,6.3V378h-9.8v-46.8H259.8"/>
	<path class="st2" d="M300.5,361.1c0,3.4,0.8,5.9,2.5,7.7c1.7,1.8,3.8,2.7,6.3,2.7c2.5,0,4.6-0.9,6.2-2.7c1.7-1.8,2.5-4.4,2.5-7.8
		c0-3.3-0.8-5.9-2.5-7.7c-1.7-1.8-3.8-2.7-6.2-2.7c-2.5,0-4.6,0.9-6.3,2.7C301.4,355.2,300.5,357.7,300.5,361.1 M290.7,360.6
		c0-3,0.8-5.8,2.3-8.6c1.6-2.8,3.8-4.9,6.6-6.3c2.9-1.5,6.1-2.2,9.6-2.2c5.5,0,9.9,1.7,13.4,5c3.5,3.3,5.2,7.5,5.2,12.5
		c0,5.1-1.8,9.3-5.3,12.6c-3.5,3.3-8,5-13.3,5c-3.3,0-6.5-0.7-9.5-2.1c-3-1.4-5.3-3.4-6.8-6.1C291.5,367.8,290.7,364.5,290.7,360.6z
		"/>
	<path class="st2" d="M368.7,378h-9.8v-17c0-3.6-0.2-5.9-0.6-7c-0.4-1.1-1-1.9-1.9-2.5c-0.9-0.6-2-0.9-3.2-0.9c-1.6,0-3,0.4-4.3,1.3
		c-1.3,0.8-2.1,1.9-2.6,3.3c-0.5,1.4-0.7,3.9-0.7,7.6V378h-9.8v-33.8h9.8v5c3-3.7,6.9-5.6,11.5-5.6c2,0,3.9,0.4,5.6,1.1
		c1.7,0.7,3,1.6,3.8,2.7c0.9,1.1,1.5,2.3,1.8,3.7c0.3,1.4,0.5,3.4,0.5,6L368.7,378"/>
</g>
</svg>
